<mxfile host="app.diagrams.net" modified="2021-03-08T14:16:55.507Z" agent="5.0 (Windows NT 10.0; Win64; x64) AppleWebKit/537.36 (KHTML, like Gecko) Chrome/88.0.4324.190 Safari/537.36" etag="D-1N0Zm-_CFAWxTbtqqB" version="14.4.4" type="github">
  <diagram id="JFFTHve_9rxQ_7Y7nS_G" name="Page-1">
    <mxGraphModel dx="2512" dy="1837" grid="1" gridSize="10" guides="1" tooltips="1" connect="1" arrows="1" fold="1" page="1" pageScale="1" pageWidth="850" pageHeight="1100" math="0" shadow="0">
      <root>
        <mxCell id="0" />
        <mxCell id="1" parent="0" />
        <mxCell id="o8Tci1gJP2nC2cgZEV9O-1" value="" style="rounded=0;whiteSpace=wrap;html=1;" vertex="1" parent="1">
          <mxGeometry x="131.25" y="-60" width="687.5" height="530" as="geometry" />
        </mxCell>
        <mxCell id="o8Tci1gJP2nC2cgZEV9O-2" value="Player&lt;br&gt;" style="shape=umlActor;verticalLabelPosition=bottom;verticalAlign=top;html=1;" vertex="1" parent="1">
          <mxGeometry x="80" y="50" width="20" height="30" as="geometry" />
        </mxCell>
        <mxCell id="o8Tci1gJP2nC2cgZEV9O-3" value="Dealer&lt;br&gt;" style="shape=umlActor;verticalLabelPosition=bottom;verticalAlign=top;html=1;" vertex="1" parent="1">
          <mxGeometry x="870" y="135" width="20" height="30" as="geometry" />
        </mxCell>
        <mxCell id="o8Tci1gJP2nC2cgZEV9O-4" value="Score&lt;br&gt;&lt;span style=&quot;color: rgba(0 , 0 , 0 , 0) ; font-family: monospace ; font-size: 0px&quot;&gt;%3CmxGraphModel%3E%3Croot%3E%3CmxCell%20id%3D%220%22%2F%3E%3CmxCell%20id%3D%221%22%20parent%3D%220%22%2F%3E%3CmxCell%20id%3D%222%22%20value%3D%22Player%26lt%3Bbr%26gt%3B%22%20style%3D%22shape%3DumlActor%3BverticalLabelPosition%3Dbottom%3BverticalAlign%3Dtop%3Bhtml%3D1%3B%22%20vertex%3D%221%22%20parent%3D%221%22%3E%3CmxGeometry%20x%3D%2255%22%20y%3D%22160%22%20width%3D%2220%22%20height%3D%2230%22%20as%3D%22geometry%22%2F%3E%3C%2FmxCell%3E%3C%2Froot%3E%3C%2FmxGraphModel%3E&lt;/span&gt;" style="shape=umlActor;verticalLabelPosition=bottom;verticalAlign=top;html=1;" vertex="1" parent="1">
          <mxGeometry x="607.5" y="520" width="20" height="30" as="geometry" />
        </mxCell>
        <mxCell id="o8Tci1gJP2nC2cgZEV9O-5" value="Get Card" style="ellipse;whiteSpace=wrap;html=1;" vertex="1" parent="1">
          <mxGeometry x="445" y="60" width="60" height="50" as="geometry" />
        </mxCell>
        <mxCell id="o8Tci1gJP2nC2cgZEV9O-6" value="Shuffles Cards" style="ellipse;whiteSpace=wrap;html=1;" vertex="1" parent="1">
          <mxGeometry x="590" y="50" width="90" height="60" as="geometry" />
        </mxCell>
        <mxCell id="o8Tci1gJP2nC2cgZEV9O-7" value="Hit" style="ellipse;whiteSpace=wrap;html=1;" vertex="1" parent="1">
          <mxGeometry x="180" y="80" width="60" height="30" as="geometry" />
        </mxCell>
        <mxCell id="o8Tci1gJP2nC2cgZEV9O-8" value="Reset OR update&amp;nbsp; Score" style="ellipse;whiteSpace=wrap;html=1;" vertex="1" parent="1">
          <mxGeometry x="525" y="-30" width="90" height="40" as="geometry" />
        </mxCell>
        <mxCell id="o8Tci1gJP2nC2cgZEV9O-9" value="Start Game&lt;br&gt;" style="ellipse;whiteSpace=wrap;html=1;" vertex="1" parent="1">
          <mxGeometry x="170" y="-10" width="80" height="60" as="geometry" />
        </mxCell>
        <mxCell id="o8Tci1gJP2nC2cgZEV9O-10" value="Start new Game" style="ellipse;whiteSpace=wrap;html=1;" vertex="1" parent="1">
          <mxGeometry x="332.5" y="-30" width="110" height="30" as="geometry" />
        </mxCell>
        <mxCell id="o8Tci1gJP2nC2cgZEV9O-11" value="Start Rematch game" style="ellipse;whiteSpace=wrap;html=1;" vertex="1" parent="1">
          <mxGeometry x="335" y="5" width="115" height="30" as="geometry" />
        </mxCell>
        <mxCell id="o8Tci1gJP2nC2cgZEV9O-12" value="Extends" style="endArrow=block;endSize=16;endFill=0;html=1;" edge="1" parent="1" target="o8Tci1gJP2nC2cgZEV9O-9">
          <mxGeometry x="-0.3118" y="-7" width="160" relative="1" as="geometry">
            <mxPoint x="330" y="-10" as="sourcePoint" />
            <mxPoint x="330" y="-5.289999999999964" as="targetPoint" />
            <Array as="points">
              <mxPoint x="330" y="-10" />
            </Array>
            <mxPoint as="offset" />
          </mxGeometry>
        </mxCell>
        <mxCell id="o8Tci1gJP2nC2cgZEV9O-13" value="Extends" style="endArrow=block;endSize=16;endFill=0;html=1;" edge="1" parent="1">
          <mxGeometry x="-0.3118" y="-7" width="160" relative="1" as="geometry">
            <mxPoint x="332" y="19.999999999999773" as="sourcePoint" />
            <mxPoint x="250.00335136080412" y="30.294598710657738" as="targetPoint" />
            <Array as="points" />
            <mxPoint as="offset" />
          </mxGeometry>
        </mxCell>
        <mxCell id="o8Tci1gJP2nC2cgZEV9O-14" value="&amp;lt;&amp;lt;include&amp;gt;&amp;gt;" style="html=1;verticalAlign=bottom;labelBackgroundColor=none;endArrow=open;endFill=0;dashed=1;entryX=0.023;entryY=0.418;entryDx=0;entryDy=0;entryPerimeter=0;" edge="1" parent="1" target="o8Tci1gJP2nC2cgZEV9O-8">
          <mxGeometry width="160" relative="1" as="geometry">
            <mxPoint x="440" y="-15.239999999999782" as="sourcePoint" />
            <mxPoint x="600" y="-15.240000000000009" as="targetPoint" />
          </mxGeometry>
        </mxCell>
        <mxCell id="o8Tci1gJP2nC2cgZEV9O-15" value="" style="endArrow=none;html=1;" edge="1" parent="1" source="o8Tci1gJP2nC2cgZEV9O-4">
          <mxGeometry width="50" height="50" relative="1" as="geometry">
            <mxPoint x="780" y="-5" as="sourcePoint" />
            <mxPoint x="600" y="-5.000000000000227" as="targetPoint" />
            <Array as="points">
              <mxPoint x="1030" y="530" />
              <mxPoint x="1030" y="420" />
              <mxPoint x="1030" y="-10" />
            </Array>
          </mxGeometry>
        </mxCell>
        <mxCell id="o8Tci1gJP2nC2cgZEV9O-16" value="" style="endArrow=none;html=1;entryX=-0.012;entryY=0.64;entryDx=0;entryDy=0;entryPerimeter=0;exitX=0.471;exitY=0.697;exitDx=0;exitDy=0;exitPerimeter=0;" edge="1" parent="1" source="o8Tci1gJP2nC2cgZEV9O-2" target="o8Tci1gJP2nC2cgZEV9O-9">
          <mxGeometry width="50" height="50" relative="1" as="geometry">
            <mxPoint x="125" y="70" as="sourcePoint" />
            <mxPoint x="175" y="20" as="targetPoint" />
          </mxGeometry>
        </mxCell>
        <mxCell id="o8Tci1gJP2nC2cgZEV9O-17" value="Stand" style="ellipse;whiteSpace=wrap;html=1;" vertex="1" parent="1">
          <mxGeometry x="180" y="120" width="60" height="30" as="geometry" />
        </mxCell>
        <mxCell id="o8Tci1gJP2nC2cgZEV9O-18" value="Double" style="ellipse;whiteSpace=wrap;html=1;" vertex="1" parent="1">
          <mxGeometry x="180" y="165" width="60" height="30" as="geometry" />
        </mxCell>
        <mxCell id="o8Tci1gJP2nC2cgZEV9O-19" value="Split" style="ellipse;whiteSpace=wrap;html=1;" vertex="1" parent="1">
          <mxGeometry x="180" y="210" width="60" height="30" as="geometry" />
        </mxCell>
        <mxCell id="o8Tci1gJP2nC2cgZEV9O-20" value="" style="endArrow=none;html=1;entryX=0.024;entryY=0.303;entryDx=0;entryDy=0;entryPerimeter=0;" edge="1" parent="1" target="o8Tci1gJP2nC2cgZEV9O-7">
          <mxGeometry width="50" height="50" relative="1" as="geometry">
            <mxPoint x="110" y="79.99999999999977" as="sourcePoint" />
            <mxPoint x="179.03999999999996" y="38.40000000000009" as="targetPoint" />
          </mxGeometry>
        </mxCell>
        <mxCell id="o8Tci1gJP2nC2cgZEV9O-21" value="" style="endArrow=none;html=1;entryX=0;entryY=0;entryDx=0;entryDy=0;exitX=0.781;exitY=0.887;exitDx=0;exitDy=0;exitPerimeter=0;" edge="1" parent="1" source="o8Tci1gJP2nC2cgZEV9O-2" target="o8Tci1gJP2nC2cgZEV9O-17">
          <mxGeometry width="50" height="50" relative="1" as="geometry">
            <mxPoint x="130" y="80" as="sourcePoint" />
            <mxPoint x="189.03999999999996" y="48.40000000000009" as="targetPoint" />
          </mxGeometry>
        </mxCell>
        <mxCell id="o8Tci1gJP2nC2cgZEV9O-22" value="" style="endArrow=none;html=1;entryX=0;entryY=0.5;entryDx=0;entryDy=0;" edge="1" parent="1" target="o8Tci1gJP2nC2cgZEV9O-18">
          <mxGeometry width="50" height="50" relative="1" as="geometry">
            <mxPoint x="110" y="79.99999999999977" as="sourcePoint" />
            <mxPoint x="199.03999999999996" y="58.40000000000009" as="targetPoint" />
          </mxGeometry>
        </mxCell>
        <mxCell id="o8Tci1gJP2nC2cgZEV9O-23" value="" style="endArrow=none;html=1;entryX=0.567;entryY=0.76;entryDx=0;entryDy=0;entryPerimeter=0;exitX=0;exitY=0.333;exitDx=0;exitDy=0;exitPerimeter=0;" edge="1" parent="1" source="o8Tci1gJP2nC2cgZEV9O-19" target="o8Tci1gJP2nC2cgZEV9O-2">
          <mxGeometry width="50" height="50" relative="1" as="geometry">
            <mxPoint x="80.96" y="140" as="sourcePoint" />
            <mxPoint x="125" y="98.40000000000009" as="targetPoint" />
          </mxGeometry>
        </mxCell>
        <mxCell id="o8Tci1gJP2nC2cgZEV9O-24" value="&amp;lt;&amp;lt;include&amp;gt;&amp;gt;" style="html=1;verticalAlign=bottom;labelBackgroundColor=none;endArrow=open;endFill=0;dashed=1;entryX=0.023;entryY=0.418;entryDx=0;entryDy=0;entryPerimeter=0;" edge="1" parent="1" source="o8Tci1gJP2nC2cgZEV9O-7">
          <mxGeometry width="160" relative="1" as="geometry">
            <mxPoint x="372.93" y="84.01999999999998" as="sourcePoint" />
            <mxPoint x="444.99999999999955" y="85.98000000000025" as="targetPoint" />
          </mxGeometry>
        </mxCell>
        <mxCell id="o8Tci1gJP2nC2cgZEV9O-25" value="" style="endArrow=none;html=1;entryX=1;entryY=0.5;entryDx=0;entryDy=0;exitX=0.579;exitY=0.648;exitDx=0;exitDy=0;exitPerimeter=0;" edge="1" parent="1" source="o8Tci1gJP2nC2cgZEV9O-3" target="o8Tci1gJP2nC2cgZEV9O-6">
          <mxGeometry width="50" height="50" relative="1" as="geometry">
            <mxPoint x="846.25" y="144.83000000000004" as="sourcePoint" />
            <mxPoint x="746.25" y="85" as="targetPoint" />
          </mxGeometry>
        </mxCell>
        <mxCell id="o8Tci1gJP2nC2cgZEV9O-26" value="Extends" style="endArrow=block;endSize=16;endFill=0;html=1;entryX=1;entryY=0.5;entryDx=0;entryDy=0;" edge="1" parent="1" target="o8Tci1gJP2nC2cgZEV9O-5">
          <mxGeometry x="-0.2803" y="-12" width="160" relative="1" as="geometry">
            <mxPoint x="592" y="79.84999999999991" as="sourcePoint" />
            <mxPoint x="510.0033513608039" y="90.14459871065799" as="targetPoint" />
            <Array as="points" />
            <mxPoint as="offset" />
          </mxGeometry>
        </mxCell>
        <mxCell id="o8Tci1gJP2nC2cgZEV9O-27" value="Count dealer points" style="ellipse;whiteSpace=wrap;html=1;" vertex="1" parent="1">
          <mxGeometry x="470" y="175" width="90" height="55" as="geometry" />
        </mxCell>
        <mxCell id="o8Tci1gJP2nC2cgZEV9O-28" value="Compare points" style="ellipse;whiteSpace=wrap;html=1;" vertex="1" parent="1">
          <mxGeometry x="590" y="120" width="90" height="45" as="geometry" />
        </mxCell>
        <mxCell id="o8Tci1gJP2nC2cgZEV9O-29" value="Check Status" style="ellipse;whiteSpace=wrap;html=1;" vertex="1" parent="1">
          <mxGeometry x="410" y="295" width="67.5" height="47.5" as="geometry" />
        </mxCell>
        <mxCell id="o8Tci1gJP2nC2cgZEV9O-30" value="Dealer Hand" style="ellipse;whiteSpace=wrap;html=1;" vertex="1" parent="1">
          <mxGeometry x="656.25" y="180" width="80" height="50" as="geometry" />
        </mxCell>
        <mxCell id="o8Tci1gJP2nC2cgZEV9O-31" value="Player looser" style="ellipse;whiteSpace=wrap;html=1;" vertex="1" parent="1">
          <mxGeometry x="620" y="330" width="70" height="50" as="geometry" />
        </mxCell>
        <mxCell id="o8Tci1gJP2nC2cgZEV9O-32" value="Player Wins" style="ellipse;whiteSpace=wrap;html=1;" vertex="1" parent="1">
          <mxGeometry x="542.5" y="220" width="65" height="50" as="geometry" />
        </mxCell>
        <mxCell id="o8Tci1gJP2nC2cgZEV9O-33" value="" style="endArrow=none;html=1;entryX=1;entryY=0.5;entryDx=0;entryDy=0;exitX=0.521;exitY=0.648;exitDx=0;exitDy=0;exitPerimeter=0;" edge="1" parent="1" source="o8Tci1gJP2nC2cgZEV9O-3" target="o8Tci1gJP2nC2cgZEV9O-28">
          <mxGeometry width="50" height="50" relative="1" as="geometry">
            <mxPoint x="856.25" y="154.83000000000004" as="sourcePoint" />
            <mxPoint x="736.250000000003" y="157.5" as="targetPoint" />
          </mxGeometry>
        </mxCell>
        <mxCell id="o8Tci1gJP2nC2cgZEV9O-34" value="Extends" style="endArrow=block;endSize=16;endFill=0;html=1;" edge="1" parent="1" source="o8Tci1gJP2nC2cgZEV9O-28">
          <mxGeometry x="-0.3118" y="-7" width="160" relative="1" as="geometry">
            <mxPoint x="570" y="150" as="sourcePoint" />
            <mxPoint x="498.00335136080366" y="100.14459871065787" as="targetPoint" />
            <Array as="points" />
            <mxPoint as="offset" />
          </mxGeometry>
        </mxCell>
        <mxCell id="o8Tci1gJP2nC2cgZEV9O-35" value="" style="endArrow=none;html=1;" edge="1" parent="1">
          <mxGeometry width="50" height="50" relative="1" as="geometry">
            <mxPoint x="880" y="149.99999999999977" as="sourcePoint" />
            <mxPoint x="740" y="199.99999999999977" as="targetPoint" />
          </mxGeometry>
        </mxCell>
        <mxCell id="o8Tci1gJP2nC2cgZEV9O-36" value="" style="endArrow=none;html=1;exitX=0;exitY=0.5;exitDx=0;exitDy=0;" edge="1" parent="1" source="o8Tci1gJP2nC2cgZEV9O-30" target="o8Tci1gJP2nC2cgZEV9O-27">
          <mxGeometry width="50" height="50" relative="1" as="geometry">
            <mxPoint x="711.25" y="155" as="sourcePoint" />
            <mxPoint x="591.25" y="210" as="targetPoint" />
          </mxGeometry>
        </mxCell>
        <mxCell id="o8Tci1gJP2nC2cgZEV9O-37" value="&amp;lt;&amp;lt;include&amp;gt;&amp;gt;" style="html=1;verticalAlign=bottom;labelBackgroundColor=none;endArrow=open;endFill=0;dashed=1;" edge="1" parent="1" source="o8Tci1gJP2nC2cgZEV9O-29" target="o8Tci1gJP2nC2cgZEV9O-27">
          <mxGeometry x="0.0485" y="3" width="160" relative="1" as="geometry">
            <mxPoint x="660.4300000000001" y="291.52" as="sourcePoint" />
            <mxPoint x="732.5000000000001" y="293.48" as="targetPoint" />
            <mxPoint as="offset" />
            <Array as="points">
              <mxPoint x="459" y="282" />
            </Array>
          </mxGeometry>
        </mxCell>
        <mxCell id="o8Tci1gJP2nC2cgZEV9O-38" value="Update Score" style="ellipse;whiteSpace=wrap;html=1;" vertex="1" parent="1">
          <mxGeometry x="540" y="400" width="80" height="40" as="geometry" />
        </mxCell>
        <mxCell id="o8Tci1gJP2nC2cgZEV9O-39" value="Extends" style="endArrow=block;endSize=16;endFill=0;html=1;" edge="1" parent="1" source="o8Tci1gJP2nC2cgZEV9O-29" target="o8Tci1gJP2nC2cgZEV9O-38">
          <mxGeometry x="-0.3118" y="-7" width="160" relative="1" as="geometry">
            <mxPoint x="615" y="287.5" as="sourcePoint" />
            <mxPoint x="620" y="347.5" as="targetPoint" />
            <Array as="points" />
            <mxPoint as="offset" />
          </mxGeometry>
        </mxCell>
        <mxCell id="o8Tci1gJP2nC2cgZEV9O-40" value="" style="endArrow=none;html=1;exitX=0.421;exitY=0.629;exitDx=0;exitDy=0;exitPerimeter=0;entryX=0.498;entryY=1.006;entryDx=0;entryDy=0;entryPerimeter=0;" edge="1" parent="1" source="o8Tci1gJP2nC2cgZEV9O-4" target="o8Tci1gJP2nC2cgZEV9O-38">
          <mxGeometry width="50" height="50" relative="1" as="geometry">
            <mxPoint x="900" y="280" as="sourcePoint" />
            <mxPoint x="690" y="350" as="targetPoint" />
            <Array as="points" />
          </mxGeometry>
        </mxCell>
        <mxCell id="o8Tci1gJP2nC2cgZEV9O-41" value="&amp;lt;&amp;lt;include&amp;gt;&amp;gt;" style="html=1;verticalAlign=bottom;labelBackgroundColor=none;endArrow=open;endFill=0;dashed=1;entryX=0.023;entryY=0.418;entryDx=0;entryDy=0;entryPerimeter=0;exitX=1;exitY=0.5;exitDx=0;exitDy=0;" edge="1" parent="1" source="o8Tci1gJP2nC2cgZEV9O-18">
          <mxGeometry width="160" relative="1" as="geometry">
            <mxPoint x="249.92039892572257" y="103.90801463774733" as="sourcePoint" />
            <mxPoint x="455" y="95.98000000000025" as="targetPoint" />
            <Array as="points">
              <mxPoint x="280" y="140" />
            </Array>
          </mxGeometry>
        </mxCell>
        <mxCell id="o8Tci1gJP2nC2cgZEV9O-42" value="&amp;lt;&amp;lt;include&amp;gt;&amp;gt;" style="html=1;verticalAlign=bottom;labelBackgroundColor=none;endArrow=open;endFill=0;dashed=1;entryX=0.29;entryY=1.02;entryDx=0;entryDy=0;entryPerimeter=0;exitX=1;exitY=0.5;exitDx=0;exitDy=0;" edge="1" parent="1" target="o8Tci1gJP2nC2cgZEV9O-5">
          <mxGeometry width="160" relative="1" as="geometry">
            <mxPoint x="235" y="219.01999999999998" as="sourcePoint" />
            <mxPoint x="449.9999999999998" y="134.9999999999999" as="targetPoint" />
            <Array as="points">
              <mxPoint x="300" y="160" />
            </Array>
          </mxGeometry>
        </mxCell>
        <mxCell id="o8Tci1gJP2nC2cgZEV9O-43" value="Can be Multiplayers in a game&lt;br&gt;" style="text;html=1;align=center;verticalAlign=middle;resizable=0;points=[];autosize=1;" vertex="1" parent="1">
          <mxGeometry x="-80" y="50" width="180" height="20" as="geometry" />
        </mxCell>
        <mxCell id="o8Tci1gJP2nC2cgZEV9O-44" value="(Computer + Human)" style="text;html=1;align=center;verticalAlign=middle;resizable=0;points=[];autosize=1;" vertex="1" parent="1">
          <mxGeometry x="-70" y="70" width="130" height="20" as="geometry" />
        </mxCell>
        <mxCell id="o8Tci1gJP2nC2cgZEV9O-45" value="(Computer)" style="text;html=1;align=center;verticalAlign=middle;resizable=0;points=[];autosize=1;" vertex="1" parent="1">
          <mxGeometry x="900" y="145" width="80" height="20" as="geometry" />
        </mxCell>
        <mxCell id="o8Tci1gJP2nC2cgZEV9O-46" value="&amp;lt;&amp;lt;include&amp;gt;&amp;gt;" style="html=1;verticalAlign=bottom;labelBackgroundColor=none;endArrow=open;endFill=0;dashed=1;exitX=0.433;exitY=-0.005;exitDx=0;exitDy=0;exitPerimeter=0;" edge="1" parent="1" source="o8Tci1gJP2nC2cgZEV9O-27">
          <mxGeometry x="-0.3678" y="10" width="160" relative="1" as="geometry">
            <mxPoint x="576.9009195080168" y="247.62728847141284" as="sourcePoint" />
            <mxPoint x="589.9959978986217" y="144.9975170736975" as="targetPoint" />
            <mxPoint as="offset" />
          </mxGeometry>
        </mxCell>
        <mxCell id="o8Tci1gJP2nC2cgZEV9O-47" value="Tied Game" style="ellipse;whiteSpace=wrap;html=1;" vertex="1" parent="1">
          <mxGeometry x="600" y="248.75" width="70" height="50" as="geometry" />
        </mxCell>
        <mxCell id="o8Tci1gJP2nC2cgZEV9O-48" value="&amp;lt;&amp;lt;include&amp;gt;&amp;gt;" style="html=1;verticalAlign=bottom;labelBackgroundColor=none;endArrow=open;endFill=0;dashed=1;" edge="1" parent="1" source="o8Tci1gJP2nC2cgZEV9O-47" target="o8Tci1gJP2nC2cgZEV9O-29">
          <mxGeometry x="-0.3678" y="10" width="160" relative="1" as="geometry">
            <mxPoint x="404.49000000000024" y="230.00499999999988" as="sourcePoint" />
            <mxPoint x="485.51599789862166" y="200.2775170736976" as="targetPoint" />
            <mxPoint as="offset" />
            <Array as="points" />
          </mxGeometry>
        </mxCell>
        <mxCell id="o8Tci1gJP2nC2cgZEV9O-49" value="Insurance" style="ellipse;whiteSpace=wrap;html=1;" vertex="1" parent="1">
          <mxGeometry x="177.5" y="258.13" width="65" height="31.25" as="geometry" />
        </mxCell>
        <mxCell id="o8Tci1gJP2nC2cgZEV9O-50" value="" style="endArrow=none;html=1;entryX=0.49;entryY=0.773;entryDx=0;entryDy=0;entryPerimeter=0;exitX=0;exitY=0;exitDx=0;exitDy=0;" edge="1" parent="1" source="o8Tci1gJP2nC2cgZEV9O-49" target="o8Tci1gJP2nC2cgZEV9O-2">
          <mxGeometry width="50" height="50" relative="1" as="geometry">
            <mxPoint x="165" y="205.78999999999996" as="sourcePoint" />
            <mxPoint x="110" y="84.20000000000005" as="targetPoint" />
          </mxGeometry>
        </mxCell>
        <mxCell id="o8Tci1gJP2nC2cgZEV9O-51" value="&amp;lt;&amp;lt;include&amp;gt;&amp;gt;" style="html=1;verticalAlign=bottom;labelBackgroundColor=none;endArrow=open;endFill=0;dashed=1;" edge="1" parent="1" source="o8Tci1gJP2nC2cgZEV9O-31" target="o8Tci1gJP2nC2cgZEV9O-29">
          <mxGeometry x="-0.619" y="9" width="160" relative="1" as="geometry">
            <mxPoint x="393.25" y="280.1500000000001" as="sourcePoint" />
            <mxPoint x="480" y="300" as="targetPoint" />
            <mxPoint x="-1" as="offset" />
          </mxGeometry>
        </mxCell>
        <mxCell id="o8Tci1gJP2nC2cgZEV9O-52" value="&amp;lt;&amp;lt;include&amp;gt;&amp;gt;" style="html=1;verticalAlign=bottom;labelBackgroundColor=none;endArrow=open;endFill=0;dashed=1;" edge="1" parent="1" source="o8Tci1gJP2nC2cgZEV9O-32" target="o8Tci1gJP2nC2cgZEV9O-29">
          <mxGeometry x="-0.3678" y="10" width="160" relative="1" as="geometry">
            <mxPoint x="403.25" y="290.1500000000001" as="sourcePoint" />
            <mxPoint x="505.51599789862166" y="220.2775170736976" as="targetPoint" />
            <mxPoint as="offset" />
          </mxGeometry>
        </mxCell>
        <mxCell id="o8Tci1gJP2nC2cgZEV9O-53" value="QuitGame" style="ellipse;whiteSpace=wrap;html=1;" vertex="1" parent="1">
          <mxGeometry x="145" y="390" width="80" height="60" as="geometry" />
        </mxCell>
        <mxCell id="o8Tci1gJP2nC2cgZEV9O-54" value="" style="endArrow=none;html=1;entryX=0.49;entryY=0.773;entryDx=0;entryDy=0;entryPerimeter=0;" edge="1" parent="1" source="o8Tci1gJP2nC2cgZEV9O-53">
          <mxGeometry width="50" height="50" relative="1" as="geometry">
            <mxPoint x="175.0039043909001" y="269.9951254595703" as="sourcePoint" />
            <mxPoint x="110.59000000000015" y="82.20999999999981" as="targetPoint" />
            <Array as="points">
              <mxPoint x="90" y="420" />
              <mxPoint x="111" y="420" />
            </Array>
          </mxGeometry>
        </mxCell>
        <mxCell id="o8Tci1gJP2nC2cgZEV9O-55" value="Player Hand" style="ellipse;whiteSpace=wrap;html=1;" vertex="1" parent="1">
          <mxGeometry x="162.5" y="300" width="80" height="50" as="geometry" />
        </mxCell>
        <mxCell id="o8Tci1gJP2nC2cgZEV9O-56" value="" style="endArrow=none;html=1;entryX=0;entryY=0.5;entryDx=0;entryDy=0;" edge="1" parent="1" target="o8Tci1gJP2nC2cgZEV9O-55">
          <mxGeometry width="50" height="50" relative="1" as="geometry">
            <mxPoint x="100" y="79.99999999999977" as="sourcePoint" />
            <mxPoint x="-25" y="119.99999999999977" as="targetPoint" />
          </mxGeometry>
        </mxCell>
        <mxCell id="o8Tci1gJP2nC2cgZEV9O-57" value="Count Player Points" style="ellipse;whiteSpace=wrap;html=1;" vertex="1" parent="1">
          <mxGeometry x="290" y="295" width="80" height="60" as="geometry" />
        </mxCell>
        <mxCell id="o8Tci1gJP2nC2cgZEV9O-58" value="" style="endArrow=none;html=1;" edge="1" parent="1">
          <mxGeometry width="50" height="50" relative="1" as="geometry">
            <mxPoint x="290" y="324" as="sourcePoint" />
            <mxPoint x="242.4969762586643" y="324.08157318027475" as="targetPoint" />
          </mxGeometry>
        </mxCell>
        <mxCell id="o8Tci1gJP2nC2cgZEV9O-59" value="&amp;lt;&amp;lt;include&amp;gt;&amp;gt;" style="html=1;verticalAlign=bottom;labelBackgroundColor=none;endArrow=open;endFill=0;dashed=1;exitX=0;exitY=0.5;exitDx=0;exitDy=0;" edge="1" parent="1" source="o8Tci1gJP2nC2cgZEV9O-18" target="o8Tci1gJP2nC2cgZEV9O-8">
          <mxGeometry width="160" relative="1" as="geometry">
            <mxPoint x="460" y="35.00000000000022" as="sourcePoint" />
            <mxPoint x="510" y="37" as="targetPoint" />
            <Array as="points">
              <mxPoint x="160" y="60" />
              <mxPoint x="580" y="40" />
            </Array>
          </mxGeometry>
        </mxCell>
        <mxCell id="o8Tci1gJP2nC2cgZEV9O-60" value="&amp;lt;&amp;lt;include&amp;gt;&amp;gt;" style="html=1;verticalAlign=bottom;labelBackgroundColor=none;endArrow=open;endFill=0;dashed=1;" edge="1" parent="1" source="o8Tci1gJP2nC2cgZEV9O-29" target="o8Tci1gJP2nC2cgZEV9O-57">
          <mxGeometry x="0.225" y="-29" width="160" relative="1" as="geometry">
            <mxPoint x="463.08672225956525" y="305.9269011432855" as="sourcePoint" />
            <mxPoint x="507.1758999854462" y="237.75080835395124" as="targetPoint" />
            <mxPoint as="offset" />
            <Array as="points">
              <mxPoint x="420" y="316" />
            </Array>
          </mxGeometry>
        </mxCell>
        <mxCell id="o8Tci1gJP2nC2cgZEV9O-61" value="&amp;lt;&amp;lt;include&amp;gt;&amp;gt;" style="html=1;verticalAlign=bottom;labelBackgroundColor=none;endArrow=open;endFill=0;dashed=1;entryX=0.023;entryY=0.418;entryDx=0;entryDy=0;entryPerimeter=0;exitX=1;exitY=0.5;exitDx=0;exitDy=0;" edge="1" parent="1" source="o8Tci1gJP2nC2cgZEV9O-11">
          <mxGeometry width="160" relative="1" as="geometry">
            <mxPoint x="450" y="-5.239999999999782" as="sourcePoint" />
            <mxPoint x="537.0700000000002" y="-3.2799999999999727" as="targetPoint" />
          </mxGeometry>
        </mxCell>
      </root>
    </mxGraphModel>
  </diagram>
</mxfile>
